<svg width="288" height="48" viewBox="0 0 288 48" fill="none" xmlns="http://www.w3.org/2000/svg">
<path d="M275.8 24.3921C282.538 24.3921 288 18.9318 288 12.1961C288 5.46036 282.538 0 275.8 0C269.062 0 263.6 5.46036 263.6 12.1961C263.6 18.9318 269.062 24.3921 275.8 24.3921Z" fill="#D81718"/>
<path d="M172.904 24.1655V27.8967H166.696V45.956H161.999V27.8967H155.982V24.1655H172.904Z" fill="#FAF9F9"/>
<path d="M172.904 24.1655V27.8967H166.696V45.956H161.999V27.8967H155.982V24.1655H172.904Z" fill="#FAF9F9"/>
<path d="M179.849 24.1655H184.762L192.836 45.956H187.758L186.069 40.8796H178.313L176.624 45.956H171.775L179.849 24.1655ZM179.392 37.4911H184.927L183.924 34.5848C183.594 33.6838 183.302 32.7827 183.023 31.869C182.743 30.9552 182.477 30.0415 182.223 29.115C181.969 29.9907 181.69 30.8918 181.385 31.7928C181.08 32.6939 180.775 33.633 180.458 34.5848L179.392 37.4911Z" fill="#FAF9F9"/>
<path d="M179.849 24.1655H184.762L192.836 45.956H187.758L186.069 40.8796H178.313L176.624 45.956H171.775L179.849 24.1655ZM179.392 37.4911H184.927L183.924 34.5848C183.594 33.6838 183.302 32.7827 183.023 31.869C182.743 30.9552 182.477 30.0415 182.223 29.115C181.969 29.9907 181.69 30.8918 181.385 31.7928C181.08 32.6939 180.775 33.633 180.458 34.5848L179.392 37.4911Z" fill="#FAF9F9"/>
<path d="M208.502 24.1655V27.8967H202.345V45.956H197.61V27.8967H191.579V24.1655H208.502Z" fill="#FAF9F9"/>
<path d="M208.502 24.1655V27.8967H202.345V45.956H197.61V27.8967H191.579V24.1655H208.502Z" fill="#FAF9F9"/>
<path d="M215.954 24.1655V45.956H211.206V24.1655H215.954Z" fill="#FAF9F9"/>
<path d="M215.954 24.1655V45.956H211.206V24.1655H215.954Z" fill="#FAF9F9"/>
<path d="M230.617 23.7853C232.082 23.7699 233.537 24.0281 234.908 24.5468C236.182 25.0268 237.338 25.7757 238.297 26.7423C239.284 27.7515 240.046 28.9583 240.532 30.2831C241.098 31.8225 241.373 33.4533 241.344 35.093C241.374 36.7009 241.094 38.2995 240.519 39.8014C240.004 41.1199 239.227 42.3202 238.234 43.3295C237.254 44.3033 236.082 45.0638 234.794 45.5631C233.416 46.0898 231.952 46.3524 230.477 46.3372C229.014 46.3524 227.561 46.1031 226.186 45.6012C224.913 45.1241 223.757 44.3798 222.797 43.4183C221.819 42.4072 221.058 41.2065 220.562 39.8902C220 38.3542 219.725 36.7283 219.75 35.093C219.725 33.4803 220.009 31.8776 220.588 30.372C221.096 29.0387 221.874 27.8247 222.873 26.8058C223.862 25.8151 225.052 25.049 226.364 24.5595C227.721 24.0391 229.163 23.7766 230.617 23.7853ZM224.777 35.093C224.756 36.235 224.91 37.3736 225.234 38.4688C225.5 39.3381 225.931 40.1481 226.504 40.8547C227.003 41.4661 227.637 41.9528 228.357 42.2761C229.068 42.593 229.839 42.7531 230.617 42.7457C231.387 42.7519 232.149 42.5917 232.851 42.2761C233.563 41.9569 234.186 41.469 234.667 40.8547C235.235 40.1457 235.666 39.3364 235.936 38.4688C236.25 37.3716 236.4 36.234 236.381 35.093C236.406 33.9248 236.248 32.7599 235.911 31.6411C235.653 30.7607 235.221 29.9409 234.641 29.2298C234.14 28.6276 233.505 28.1498 232.788 27.8338C232.07 27.5268 231.296 27.3713 230.515 27.3769C229.739 27.3718 228.971 27.5409 228.268 27.8718C227.566 28.1999 226.952 28.6917 226.478 29.3059C225.905 30.0165 225.474 30.8309 225.209 31.7045C224.896 32.806 224.75 33.9483 224.777 35.093Z" fill="#FAF9F9"/>
<path d="M230.617 23.7853C232.082 23.7699 233.537 24.0281 234.908 24.5468C236.182 25.0268 237.338 25.7757 238.297 26.7423C239.284 27.7515 240.046 28.9583 240.532 30.2831C241.098 31.8225 241.373 33.4533 241.344 35.093C241.374 36.7009 241.094 38.2995 240.519 39.8014C240.004 41.1199 239.227 42.3202 238.234 43.3295C237.254 44.3033 236.082 45.0638 234.794 45.5631C233.416 46.0898 231.952 46.3524 230.477 46.3372C229.014 46.3524 227.561 46.1031 226.186 45.6012C224.913 45.1241 223.757 44.3798 222.797 43.4183C221.819 42.4072 221.058 41.2065 220.562 39.8902C220 38.3542 219.725 36.7283 219.75 35.093C219.725 33.4803 220.009 31.8776 220.588 30.372C221.096 29.0387 221.874 27.8247 222.873 26.8058C223.862 25.8151 225.052 25.049 226.364 24.5595C227.721 24.0391 229.163 23.7766 230.617 23.7853ZM224.777 35.093C224.756 36.235 224.91 37.3736 225.234 38.4688C225.5 39.3381 225.931 40.1481 226.504 40.8547C227.003 41.4661 227.637 41.9528 228.357 42.2761C229.068 42.593 229.839 42.7531 230.617 42.7457C231.387 42.7519 232.149 42.5917 232.851 42.2761C233.563 41.9569 234.186 41.469 234.667 40.8547C235.235 40.1457 235.666 39.3364 235.936 38.4688C236.25 37.3716 236.4 36.234 236.381 35.093C236.406 33.9248 236.248 32.7599 235.911 31.6411C235.653 30.7607 235.221 29.9409 234.641 29.2298C234.14 28.6276 233.505 28.1498 232.788 27.8338C232.07 27.5268 231.296 27.3713 230.515 27.3769C229.739 27.3718 228.971 27.5409 228.268 27.8718C227.566 28.1999 226.952 28.6917 226.478 29.3059C225.905 30.0165 225.474 30.8309 225.209 31.7045C224.896 32.806 224.75 33.9483 224.777 35.093Z" fill="#FAF9F9"/>
<path d="M245.115 24.1655H249.444L256.959 35.5874C257.467 36.3743 257.937 37.1357 258.356 37.8845C258.693 38.4507 258.998 39.0354 259.27 39.6359H259.371C259.232 38.1383 259.155 36.6408 259.155 35.1559V24.1655H263.561V45.956H259.232L252.237 35.3717C251.945 34.9148 251.64 34.4326 251.361 33.9376C251.081 33.4427 250.802 32.9604 250.548 32.5035C250.294 32.0466 250.066 31.6152 249.875 31.2344C249.71 30.9256 249.561 30.6078 249.431 30.2826C249.545 31.8817 249.609 33.4046 249.621 34.8767C249.634 36.3489 249.621 37.8338 249.621 39.3567V45.956H245.191L245.115 24.1655Z" fill="#FAF9F9"/>
<path d="M245.115 24.1655H249.444L256.959 35.5874C257.467 36.3743 257.937 37.1357 258.356 37.8845C258.693 38.4507 258.998 39.0354 259.27 39.6359H259.371C259.232 38.1383 259.155 36.6408 259.155 35.1559V24.1655H263.561V45.956H259.232L252.237 35.3717C251.945 34.9148 251.64 34.4326 251.361 33.9376C251.081 33.4427 250.802 32.9604 250.548 32.5035C250.294 32.0466 250.066 31.6152 249.875 31.2344C249.71 30.9256 249.561 30.6078 249.431 30.2826C249.545 31.8817 249.609 33.4046 249.621 34.8767C249.634 36.3489 249.621 37.8338 249.621 39.3567V45.956H245.191L245.115 24.1655Z" fill="#FAF9F9"/>
<path fill-rule="evenodd" clip-rule="evenodd" d="M150.109 12.4098L154.121 15.3173L153.705 15.8865C146.069 26.3292 136.386 27.1599 133.472 27.1599H132.138V22.1943H132.84C132.851 22.1943 132.873 22.1949 132.903 22.1959H132.903H132.903C133.807 22.224 142.772 22.5033 149.697 12.9769L150.109 12.4098ZM132.554 31.1124H153.883V33.6035L153.883 33.6117C153.837 35.5574 153.379 37.4713 152.539 39.2269C151.699 40.9825 150.495 42.5399 149.008 43.7962L148.989 43.8126L148.968 43.8275C146.389 45.7045 143.251 46.6529 140.064 46.5187C137.715 46.6098 135.365 46.3656 133.085 45.7933L132.554 45.66V40.7659L133.437 41.0018C138.965 42.4781 143.389 41.802 145.88 39.9217C147.113 38.9144 148.016 37.5709 148.486 36.0637H132.554V31.1124ZM140.065 45.8156L140.065 45.816L140.065 45.8156H140.065Z" fill="#FAF9F9"/>
<path fill-rule="evenodd" clip-rule="evenodd" d="M150.109 12.4098L154.121 15.3173L153.705 15.8865C146.069 26.3292 136.386 27.1599 133.472 27.1599H132.138V22.1943H132.84C132.851 22.1943 132.873 22.1949 132.903 22.1959H132.903H132.903C133.807 22.224 142.772 22.5033 149.697 12.9769L150.109 12.4098ZM132.554 31.1124H153.883V33.6035L153.883 33.6117C153.837 35.5574 153.379 37.4713 152.539 39.2269C151.699 40.9825 150.495 42.5399 149.008 43.7962L148.989 43.8126L148.968 43.8275C146.389 45.7045 143.251 46.6529 140.064 46.5187C137.715 46.6098 135.365 46.3656 133.085 45.7933L132.554 45.66V40.7659L133.437 41.0018C138.965 42.4781 143.389 41.802 145.88 39.9217C147.113 38.9144 148.016 37.5709 148.486 36.0637H132.554V31.1124ZM140.065 45.8156L140.065 45.816L140.065 45.8156H140.065Z" fill="#FAF9F9"/>
<path d="M29.4064 45.9562V24.1658H34.1417V33.3287L41.6572 24.1658H47.5351L39.3975 33.684L48.2841 45.9562H42.4316L35.9952 36.6537L34.1925 38.5574V45.9562H29.4064Z" fill="#FAF9F9"/>
<path d="M29.4064 45.9562V24.1658H34.1417V33.3287L41.6572 24.1658H47.5351L39.3975 33.684L48.2841 45.9562H42.4316L35.9952 36.6537L34.1925 38.5574V45.9562H29.4064Z" fill="#FAF9F9"/>
<path d="M56.7391 24.1658H61.6522L69.7136 45.9562H64.699L63.0105 40.8798H55.2411L53.5399 45.9562H48.6015L56.7391 24.1658ZM56.3202 37.4913H61.868L60.8651 34.5851C60.535 33.684 60.2303 32.783 59.9637 31.8692C59.6971 30.9555 59.4178 30.0417 59.1639 29.1153C58.8973 29.9909 58.6307 30.892 58.326 31.7931C58.0213 32.6941 57.7167 33.6333 57.3866 34.5851L56.3202 37.4913Z" fill="#FAF9F9"/>
<path d="M56.7391 24.1658H61.6522L69.7136 45.9562H64.699L63.0105 40.8798H55.2411L53.5399 45.9562H48.6015L56.7391 24.1658ZM56.3202 37.4913H61.868L60.8651 34.5851C60.535 33.684 60.2303 32.783 59.9637 31.8692C59.6971 30.9555 59.4178 30.0417 59.1639 29.1153C58.8973 29.9909 58.6307 30.892 58.326 31.7931C58.0213 32.6941 57.7167 33.6333 57.3866 34.5851L56.3202 37.4913Z" fill="#FAF9F9"/>
<path d="M72.4808 24.1657H80.7581C81.8606 24.1462 82.9574 24.3268 83.9954 24.6988C84.8658 25.0203 85.6608 25.5171 86.3313 26.1582C86.9518 26.7595 87.429 27.4925 87.7278 28.303C88.0478 29.1459 88.2072 30.0412 88.1975 30.9427C88.2141 31.7389 88.0806 32.5311 87.804 33.2779C87.5606 33.9131 87.2225 34.5079 86.801 35.0419C86.414 35.5302 85.9562 35.958 85.4427 36.311C84.9926 36.6286 84.512 36.9007 84.0081 37.1233L89.3401 46.007H83.9065L79.7171 37.9862H77.1781V46.007H72.4682L72.4808 24.1657ZM77.1908 34.3185H79.057C80.1327 34.3626 81.1986 34.0984 82.1292 33.5571C82.5344 33.2768 82.8582 32.8944 83.0678 32.4486C83.2774 32.0029 83.3653 31.5096 83.3226 31.0189C83.3493 30.5719 83.2779 30.1244 83.1135 29.7079C82.949 29.2914 82.6954 28.9158 82.3704 28.6076C81.5753 27.9912 80.5813 27.6886 79.5775 27.7573H77.1908V34.3185Z" fill="#FAF9F9"/>
<path d="M72.4808 24.1657H80.7581C81.8606 24.1462 82.9574 24.3268 83.9954 24.6988C84.8658 25.0203 85.6608 25.5171 86.3313 26.1582C86.9518 26.7595 87.429 27.4925 87.7278 28.303C88.0478 29.1459 88.2072 30.0412 88.1975 30.9427C88.2141 31.7389 88.0806 32.5311 87.804 33.2779C87.5606 33.9131 87.2225 34.5079 86.801 35.0419C86.414 35.5302 85.9562 35.958 85.4427 36.311C84.9926 36.6286 84.512 36.9007 84.0081 37.1233L89.3401 46.007H83.9065L79.7171 37.9862H77.1781V46.007H72.4682L72.4808 24.1657ZM77.1908 34.3185H79.057C80.1327 34.3626 81.1986 34.0984 82.1292 33.5571C82.5344 33.2768 82.8582 32.8944 83.0678 32.4486C83.2774 32.0029 83.3653 31.5096 83.3226 31.0189C83.3493 30.5719 83.2779 30.1244 83.1135 29.7079C82.949 29.2914 82.6954 28.9158 82.3704 28.6076C81.5753 27.9912 80.5813 27.6886 79.5775 27.7573H77.1908V34.3185Z" fill="#FAF9F9"/>
<path d="M91.6635 24.1658H96.3989V37.2121C96.3035 38.6612 96.6871 40.1015 97.4906 41.3113C97.9034 41.7939 98.4245 42.172 99.0114 42.4146C99.5984 42.6572 100.234 42.7575 100.868 42.7073C101.484 42.7635 102.105 42.6639 102.672 42.4178C103.24 42.1716 103.737 41.7868 104.118 41.2986C104.83 40.2122 105.181 38.9286 105.12 37.6309V24.1658H109.83V37.2756C109.83 40.3214 109.077 42.5931 107.571 44.0907C106.654 44.8926 105.587 45.5042 104.432 45.8899C103.277 46.2755 102.057 46.4275 100.842 46.337C98.3865 46.4786 95.9697 45.6748 94.0883 44.0907C92.4506 42.5931 91.6381 40.2834 91.6381 37.0979L91.6635 24.1658Z" fill="#FAF9F9"/>
<path d="M91.6635 24.1658H96.3989V37.2121C96.3035 38.6612 96.6871 40.1015 97.4906 41.3113C97.9034 41.7939 98.4245 42.172 99.0114 42.4146C99.5984 42.6572 100.234 42.7575 100.868 42.7073C101.484 42.7635 102.105 42.6639 102.672 42.4178C103.24 42.1716 103.737 41.7868 104.118 41.2986C104.83 40.2122 105.181 38.9286 105.12 37.6309V24.1658H109.83V37.2756C109.83 40.3214 109.077 42.5931 107.571 44.0907C106.654 44.8926 105.587 45.5042 104.432 45.8899C103.277 46.2755 102.057 46.4275 100.842 46.337C98.3865 46.4786 95.9697 45.6748 94.0883 44.0907C92.4506 42.5931 91.6381 40.2834 91.6381 37.0979L91.6635 24.1658Z" fill="#FAF9F9"/>
<path d="M119.339 24.1658V45.9562H114.604V24.1658H119.339Z" fill="#FAF9F9"/>
<path d="M119.339 24.1658V45.9562H114.604V24.1658H119.339Z" fill="#FAF9F9"/>
<path fill-rule="evenodd" clip-rule="evenodd" d="M25.0925 16.7532H8.65896V19.2609C8.65896 28.5944 6.67137 34.5014 4.66975 38.0878C2.66909 41.6725 0.636259 42.9713 0.493882 43.0619L0 43.3761L1.16595 45.5383L1.16678 45.5398L2.38161 47.7779L2.94521 47.4385C3.75959 46.9481 4.51153 46.3608 5.18449 45.6894C7.4435 43.5214 10.7974 39.1059 12.541 30.9944H20.0888V45.8688H25.0925V16.7532ZM13.3277 25.9789C13.4721 24.6543 13.5768 23.249 13.6305 21.7686H20.1145V25.9789H13.3277Z" fill="#FAF9F9"/>
<path fill-rule="evenodd" clip-rule="evenodd" d="M25.0925 16.7532H8.65896V19.2609C8.65896 28.5944 6.67137 34.5014 4.66975 38.0878C2.66909 41.6725 0.636259 42.9713 0.493882 43.0619L0 43.3761L1.16595 45.5383L1.16678 45.5398L2.38161 47.7779L2.94521 47.4385C3.75959 46.9481 4.51153 46.3608 5.18449 45.6894C7.4435 43.5214 10.7974 39.1059 12.541 30.9944H20.0888V45.8688H25.0925V16.7532ZM13.3277 25.9789C13.4721 24.6543 13.5768 23.249 13.6305 21.7686H20.1145V25.9789H13.3277Z" fill="#FAF9F9"/>
</svg>
