<svg width="189" height="179" viewBox="0 0 189 179" fill="none" xmlns="http://www.w3.org/2000/svg">
<path fill-rule="evenodd" clip-rule="evenodd" d="M128.181 64.0967L136.491 70.1759L135.707 71.2673C119.485 93.799 98.6353 95.6044 92.4312 95.6044H89.7665V85.2004H91.0988C91.1192 85.2004 91.17 85.2004 91.231 85.2004C93.1635 85.2616 112.498 85.8736 127.398 65.1779L128.181 64.0967ZM90.6411 104.489H136.206V109.701V109.721C136.084 113.923 135.087 118.054 133.277 121.839C131.466 125.623 128.873 128.979 125.679 131.671L125.639 131.702L125.598 131.733C120.075 135.762 113.373 137.802 106.558 137.506C101.534 137.71 96.5096 137.169 91.6277 135.925L90.6208 135.67V125.46L92.299 125.908C104.189 129.091 113.769 127.653 119.129 123.409C121.865 121.186 123.859 118.187 124.876 114.821H90.631V104.489H90.6411Z" fill="#F9F9FD"/>
<path fill-rule="evenodd" clip-rule="evenodd" d="M80.5315 75.1133H45.2494V80.5091C45.2494 100.603 40.9777 113.322 36.6755 121.044C32.3733 128.765 27.9999 131.56 27.6947 131.754L26.6268 132.437L29.1593 137.088V137.098L31.7325 141.882L32.9428 141.158C34.6922 140.118 36.3093 138.863 37.7536 137.415C42.6355 132.743 49.8363 123.237 53.5486 105.744H69.7505V137.802H80.5213V75.1133H80.5315ZM55.2777 94.9522C55.5828 92.1064 55.8167 89.0872 55.9286 85.8844H69.8523V94.9522H55.2777Z" fill="#F9F9FD"/>
<path fill-rule="evenodd" clip-rule="evenodd" d="M0 26.7041H163.016V178.561H0V26.7041ZM9.31635 36.0575V169.218H153.689V36.0575H9.31635Z" fill="#F9F9FD"/>
<path d="M161.989 52.489C176.451 52.489 188.168 40.7387 188.168 26.2445C188.168 11.7504 176.441 0 161.989 0C147.536 0 135.809 11.7504 135.809 26.2445C135.809 40.7387 147.526 52.489 161.989 52.489Z" fill="#D81718"/>
</svg>
